<svg viewBox="0 0 2000 1400" xmlns="http://www.w3.org/2000/svg">
  <mask id="b" x="0" y="0" width="2000" height="1400">
    <path fill="url(#a)" d="M0 0h2000v1400H0z"/>
  </mask>
  <path d="M0 0h2000v1400H0z"/>
  <g style="transform-origin:center center" stroke="#444" stroke-width="1.2" mask="url(#b)">
    <path fill="none" d="M0 0h133.333v133.333H0z"/>
    <path fill="#44444444" d="M133.333 0h133.333v133.333H133.333z"/>
    <path fill="none" d="M266.667 0H400v133.333H266.667z"/>
    <path fill="#4444443a" d="M400 0h133.333v133.333H400z"/>
    <path fill="none" d="M533.333 0h133.333v133.333H533.333zM666.667 0H800v133.333H666.667zM800 0h133.333v133.333H800z"/>
    <path fill="#44444406" d="M933.333 0h133.333v133.333H933.333z"/>
    <path fill="none" d="M1066.667 0H1200v133.333h-133.333zM1200 0h133.333v133.333H1200zM1333.333 0h133.333v133.333h-133.333z"/>
    <path fill="#444444a5" d="M1466.667 0H1600v133.333h-133.333z"/>
    <path fill="none" d="M1600 0h133.333v133.333H1600zM1733.333 0h133.333v133.333h-133.333zM1866.667 0H2000v133.333h-133.333zM0 133.333h133.333v133.333H0zM133.333 133.333h133.333v133.333H133.333zM266.667 133.333H400v133.333H266.667zM400 133.333h133.333v133.333H400zM533.333 133.333h133.333v133.333H533.333zM666.667 133.333H800v133.333H666.667zM800 133.333h133.333v133.333H800z"/>
    <path fill="#44444475" d="M933.333 133.333h133.333v133.333H933.333z"/>
    <path fill="#444444a2" d="M1066.667 133.333H1200v133.333h-133.333z"/>
    <path fill="#444444b7" d="M1200 133.333h133.333v133.333H1200z"/>
    <path fill="#44444409" d="M1333.333 133.333h133.333v133.333h-133.333z"/>
    <path fill="none" d="M1466.667 133.333H1600v133.333h-133.333z"/>
    <path fill="#44444438" d="M1600 133.333h133.333v133.333H1600z"/>
    <path fill="none" d="M1733.333 133.333h133.333v133.333h-133.333z"/>
    <path fill="#44444432" d="M1866.667 133.333H2000v133.333h-133.333z"/>
    <path fill="none" d="M0 266.667h133.333V400H0zM133.333 266.667h133.333V400H133.333zM266.667 266.667H400V400H266.667z"/>
    <path fill="#44444484" d="M400 266.667h133.333V400H400z"/>
    <path fill="#4444448f" d="M533.333 266.667h133.333V400H533.333z"/>
    <path fill="none" d="M666.667 266.667H800V400H666.667z"/>
    <path fill="#44444491" d="M800 266.667h133.333V400H800z"/>
    <path fill="none" d="M933.333 266.667h133.333V400H933.333zM1066.667 266.667H1200V400h-133.333zM1200 266.667h133.333V400H1200z"/>
    <path fill="#4444448e" d="M1333.333 266.667h133.333V400h-133.333z"/>
    <path fill="#44444435" d="M1466.667 266.667H1600V400h-133.333z"/>
    <path fill="none" d="M1600 266.667h133.333V400H1600zM1733.333 266.667h133.333V400h-133.333zM1866.667 266.667H2000V400h-133.333z"/>
    <path fill="#44444409" d="M0 400h133.333v133.333H0z"/>
    <path fill="none" d="M133.333 400h133.333v133.333H133.333z"/>
    <path fill="#4444445c" d="M266.667 400H400v133.333H266.667z"/>
    <path fill="#44444427" d="M400 400h133.333v133.333H400z"/>
    <path fill="none" d="M533.333 400h133.333v133.333H533.333zM666.667 400H800v133.333H666.667z"/>
    <path fill="#44444418" d="M800 400h133.333v133.333H800z"/>
    <path fill="#44444467" d="M933.333 400h133.333v133.333H933.333z"/>
    <path fill="#444444b6" d="M1066.667 400H1200v133.333h-133.333z"/>
    <path fill="#44444454" d="M1200 400h133.333v133.333H1200z"/>
    <path fill="none" d="M1333.333 400h133.333v133.333h-133.333zM1466.667 400H1600v133.333h-133.333zM1600 400h133.333v133.333H1600zM1733.333 400h133.333v133.333h-133.333zM1866.667 400H2000v133.333h-133.333zM0 533.333h133.333v133.333H0z"/>
    <path fill="#444444aa" d="M133.333 533.333h133.333v133.333H133.333z"/>
    <path fill="none" d="M266.667 533.333H400v133.333H266.667z"/>
    <path fill="#444444d7" d="M400 533.333h133.333v133.333H400z"/>
    <path fill="none" d="M533.333 533.333h133.333v133.333H533.333zM666.667 533.333H800v133.333H666.667zM800 533.333h133.333v133.333H800zM933.333 533.333h133.333v133.333H933.333zM1066.667 533.333H1200v133.333h-133.333z"/>
    <path fill="#444444ef" d="M1200 533.333h133.333v133.333H1200z"/>
    <path fill="none" d="M1333.333 533.333h133.333v133.333h-133.333zM1466.667 533.333H1600v133.333h-133.333zM1600 533.333h133.333v133.333H1600z"/>
    <path fill="#44444440" d="M1733.333 533.333h133.333v133.333h-133.333z"/>
    <path fill="#4444449c" d="M1866.667 533.333H2000v133.333h-133.333z"/>
    <path fill="none" d="M0 666.667h133.333V800H0zM133.333 666.667h133.333V800H133.333zM266.667 666.667H400V800H266.667zM400 666.667h133.333V800H400zM533.333 666.667h133.333V800H533.333zM666.667 666.667H800V800H666.667zM800 666.667h133.333V800H800zM933.333 666.667h133.333V800H933.333zM1066.667 666.667H1200V800h-133.333zM1200 666.667h133.333V800H1200zM1333.333 666.667h133.333V800h-133.333zM1466.667 666.667H1600V800h-133.333zM1600 666.667h133.333V800H1600zM1733.333 666.667h133.333V800h-133.333zM1866.667 666.667H2000V800h-133.333zM0 800h133.333v133.333H0zM133.333 800h133.333v133.333H133.333z"/>
    <path fill="#4444443d" d="M266.667 800H400v133.333H266.667z"/>
    <path fill="none" d="M400 800h133.333v133.333H400zM533.333 800h133.333v133.333H533.333zM666.667 800H800v133.333H666.667zM800 800h133.333v133.333H800z"/>
    <path fill="#44444453" d="M933.333 800h133.333v133.333H933.333z"/>
    <path fill="none" d="M1066.667 800H1200v133.333h-133.333zM1200 800h133.333v133.333H1200z"/>
    <path fill="#444444ab" d="M1333.333 800h133.333v133.333h-133.333z"/>
    <path fill="#4444446b" d="M1466.667 800H1600v133.333h-133.333z"/>
    <path fill="none" d="M1600 800h133.333v133.333H1600zM1733.333 800h133.333v133.333h-133.333z"/>
    <path fill="#44444401" d="M1866.667 800H2000v133.333h-133.333z"/>
    <path fill="#444444fc" d="M0 933.333h133.333v133.333H0z"/>
    <path fill="none" d="M133.333 933.333h133.333v133.333H133.333zM266.667 933.333H400v133.333H266.667z"/>
    <path fill="#444444f3" d="M400 933.333h133.333v133.333H400z"/>
    <path fill="none" d="M533.333 933.333h133.333v133.333H533.333zM666.667 933.333H800v133.333H666.667z"/>
    <path fill="#44444465" d="M800 933.333h133.333v133.333H800z"/>
    <path fill="none" d="M933.333 933.333h133.333v133.333H933.333zM1066.667 933.333H1200v133.333h-133.333zM1200 933.333h133.333v133.333H1200zM1333.333 933.333h133.333v133.333h-133.333z"/>
    <path fill="#44444434" d="M1466.667 933.333H1600v133.333h-133.333z"/>
    <path fill="none" d="M1600 933.333h133.333v133.333H1600z"/>
    <path fill="#44444402" d="M1733.333 933.333h133.333v133.333h-133.333z"/>
    <path fill="none" d="M1866.667 933.333H2000v133.333h-133.333zM0 1066.667h133.333V1200H0zM133.333 1066.667h133.333V1200H133.333zM266.667 1066.667H400V1200H266.667zM400 1066.667h133.333V1200H400zM533.333 1066.667h133.333V1200H533.333zM666.667 1066.667H800V1200H666.667z"/>
    <path fill="#44444470" d="M800 1066.667h133.333V1200H800z"/>
    <path fill="#4444446d" d="M933.333 1066.667h133.333V1200H933.333z"/>
    <path fill="#4444442f" d="M1066.667 1066.667H1200V1200h-133.333z"/>
    <path fill="none" d="M1200 1066.667h133.333V1200H1200zM1333.333 1066.667h133.333V1200h-133.333zM1466.667 1066.667H1600V1200h-133.333zM1600 1066.667h133.333V1200H1600zM1733.333 1066.667h133.333V1200h-133.333zM1866.667 1066.667H2000V1200h-133.333zM0 1200h133.333v133.333H0zM133.333 1200h133.333v133.333H133.333zM266.667 1200H400v133.333H266.667zM400 1200h133.333v133.333H400zM533.333 1200h133.333v133.333H533.333zM666.667 1200H800v133.333H666.667z"/>
    <path fill="#444444e6" d="M800 1200h133.333v133.333H800z"/>
    <path fill="none" d="M933.333 1200h133.333v133.333H933.333z"/>
    <path fill="#44444472" d="M1066.667 1200H1200v133.333h-133.333z"/>
    <path fill="none" d="M1200 1200h133.333v133.333H1200zM1333.333 1200h133.333v133.333h-133.333zM1466.667 1200H1600v133.333h-133.333zM1600 1200h133.333v133.333H1600zM1733.333 1200h133.333v133.333h-133.333zM1866.667 1200H2000v133.333h-133.333zM0 1333.333h133.333v133.333H0zM133.333 1333.333h133.333v133.333H133.333z"/>
    <path fill="#444444ef" d="M266.667 1333.333H400v133.333H266.667z"/>
    <path fill="none" d="M400 1333.333h133.333v133.333H400zM533.333 1333.333h133.333v133.333H533.333zM666.667 1333.333H800v133.333H666.667zM800 1333.333h133.333v133.333H800zM933.333 1333.333h133.333v133.333H933.333zM1066.667 1333.333H1200v133.333h-133.333zM1200 1333.333h133.333v133.333H1200z"/>
    <path fill="#4444446c" d="M1333.333 1333.333h133.333v133.333h-133.333z"/>
    <path fill="#4444446e" d="M1466.667 1333.333H1600v133.333h-133.333z"/>
    <path fill="none" d="M1600 1333.333h133.333v133.333H1600z"/>
    <path fill="#44444489" d="M1733.333 1333.333h133.333v133.333h-133.333z"/>
    <path fill="none" d="M1866.667 1333.333H2000v133.333h-133.333z"/>
  </g>
  <defs>
    <radialGradient id="a">
      <stop offset="40%" stop-color="#fff" stop-opacity="0"/>
      <stop offset="100%" stop-color="#fff" stop-opacity=".6"/>
    </radialGradient>
  </defs>
</svg> 