<svg viewBox="0 0 2000 1400" xmlns="http://www.w3.org/2000/svg">
  <mask id="b" x="0" y="0" width="2000" height="1400">
    <path fill="url(#a)" d="M0 0h2000v1400H0z"/>
  </mask>
  <path fill="#fff" d="M0 0h2000v1400H0z"/>
  <g style="transform-origin:center center" stroke="#ddd" stroke-width="2" mask="url(#b)">
    <path fill="none" d="M0 0h133.333v133.333H0zM133.333 0h133.333v133.333H133.333zM266.667 0H400v133.333H266.667zM400 0h133.333v133.333H400z"/>
    <path fill="#ddddddfa" d="M533.333 0h133.333v133.333H533.333z"/>
    <path fill="none" d="M666.667 0H800v133.333H666.667zM800 0h133.333v133.333H800zM933.333 0h133.333v133.333H933.333zM1066.667 0H1200v133.333h-133.333zM1200 0h133.333v133.333H1200z"/>
    <path fill="#dddddd61" d="M1333.333 0h133.333v133.333h-133.333z"/>
    <path fill="#ddddddc3" d="M1466.667 0H1600v133.333h-133.333z"/>
    <path fill="none" d="M1600 0h133.333v133.333H1600zM1733.333 0h133.333v133.333h-133.333zM1866.667 0H2000v133.333h-133.333zM0 133.333h133.333v133.333H0z"/>
    <path fill="#dddddd84" d="M133.333 133.333h133.333v133.333H133.333z"/>
    <path fill="#dddddde4" d="M266.667 133.333H400v133.333H266.667z"/>
    <path fill="#ddddddf6" d="M400 133.333h133.333v133.333H400z"/>
    <path fill="none" d="M533.333 133.333h133.333v133.333H533.333zM666.667 133.333H800v133.333H666.667z"/>
    <path fill="#ddddddb0" d="M800 133.333h133.333v133.333H800z"/>
    <path fill="none" d="M933.333 133.333h133.333v133.333H933.333zM1066.667 133.333H1200v133.333h-133.333z"/>
    <path fill="#ddddddbf" d="M1200 133.333h133.333v133.333H1200z"/>
    <path fill="#ddddddb6" d="M1333.333 133.333h133.333v133.333h-133.333z"/>
    <path fill="none" d="M1466.667 133.333H1600v133.333h-133.333zM1600 133.333h133.333v133.333H1600z"/>
    <path fill="#dddddd4c" d="M1733.333 133.333h133.333v133.333h-133.333z"/>
    <path fill="none" d="M1866.667 133.333H2000v133.333h-133.333zM0 266.667h133.333V400H0zM133.333 266.667h133.333V400H133.333zM266.667 266.667H400V400H266.667zM400 266.667h133.333V400H400zM533.333 266.667h133.333V400H533.333z"/>
    <path fill="#ddddddab" d="M666.667 266.667H800V400H666.667z"/>
    <path fill="none" d="M800 266.667h133.333V400H800zM933.333 266.667h133.333V400H933.333z"/>
    <path fill="#ddddddab" d="M1066.667 266.667H1200V400h-133.333z"/>
    <path fill="none" d="M1200 266.667h133.333V400H1200z"/>
    <path fill="#ddddddca" d="M1333.333 266.667h133.333V400h-133.333z"/>
    <path fill="#ddddddc5" d="M1466.667 266.667H1600V400h-133.333z"/>
    <path fill="none" d="M1600 266.667h133.333V400H1600z"/>
    <path fill="#dddddd83" d="M1733.333 266.667h133.333V400h-133.333z"/>
    <path fill="none" d="M1866.667 266.667H2000V400h-133.333zM0 400h133.333v133.333H0zM133.333 400h133.333v133.333H133.333zM266.667 400H400v133.333H266.667z"/>
    <path fill="#dddddd1a" d="M400 400h133.333v133.333H400z"/>
    <path fill="none" d="M533.333 400h133.333v133.333H533.333zM666.667 400H800v133.333H666.667z"/>
    <path fill="#dddddd1b" d="M800 400h133.333v133.333H800z"/>
    <path fill="#dddddd02" d="M933.333 400h133.333v133.333H933.333z"/>
    <path fill="none" d="M1066.667 400H1200v133.333h-133.333zM1200 400h133.333v133.333H1200z"/>
    <path fill="#dddddd3c" d="M1333.333 400h133.333v133.333h-133.333z"/>
    <path fill="none" d="M1466.667 400H1600v133.333h-133.333zM1600 400h133.333v133.333H1600z"/>
    <path fill="#dddddd83" d="M1733.333 400h133.333v133.333h-133.333z"/>
    <path fill="none" d="M1866.667 400H2000v133.333h-133.333zM0 533.333h133.333v133.333H0zM133.333 533.333h133.333v133.333H133.333z"/>
    <path fill="#dddddd4c" d="M266.667 533.333H400v133.333H266.667z"/>
    <path fill="none" d="M400 533.333h133.333v133.333H400zM533.333 533.333h133.333v133.333H533.333zM666.667 533.333H800v133.333H666.667zM800 533.333h133.333v133.333H800zM933.333 533.333h133.333v133.333H933.333z"/>
    <path fill="#dddddd77" d="M1066.667 533.333H1200v133.333h-133.333z"/>
    <path fill="none" d="M1200 533.333h133.333v133.333H1200zM1333.333 533.333h133.333v133.333h-133.333z"/>
    <path fill="#dddddddd" d="M1466.667 533.333H1600v133.333h-133.333z"/>
    <path fill="none" d="M1600 533.333h133.333v133.333H1600zM1733.333 533.333h133.333v133.333h-133.333zM1866.667 533.333H2000v133.333h-133.333zM0 666.667h133.333V800H0zM133.333 666.667h133.333V800H133.333zM266.667 666.667H400V800H266.667zM400 666.667h133.333V800H400zM533.333 666.667h133.333V800H533.333zM666.667 666.667H800V800H666.667zM800 666.667h133.333V800H800zM933.333 666.667h133.333V800H933.333z"/>
    <path fill="#dddddd7f" d="M1066.667 666.667H1200V800h-133.333z"/>
    <path fill="none" d="M1200 666.667h133.333V800H1200z"/>
    <path fill="#ddddddaa" d="M1333.333 666.667h133.333V800h-133.333z"/>
    <path fill="none" d="M1466.667 666.667H1600V800h-133.333zM1600 666.667h133.333V800H1600z"/>
    <path fill="#dddddd94" d="M1733.333 666.667h133.333V800h-133.333z"/>
    <path fill="none" d="M1866.667 666.667H2000V800h-133.333z"/>
    <path fill="#ddddddd5" d="M0 800h133.333v133.333H0z"/>
    <path fill="none" d="M133.333 800h133.333v133.333H133.333zM266.667 800H400v133.333H266.667z"/>
    <path fill="#dddddda4" d="M400 800h133.333v133.333H400z"/>
    <path fill="none" d="M533.333 800h133.333v133.333H533.333zM666.667 800H800v133.333H666.667zM800 800h133.333v133.333H800z"/>
    <path fill="#dddddd59" d="M933.333 800h133.333v133.333H933.333z"/>
    <path fill="none" d="M1066.667 800H1200v133.333h-133.333zM1200 800h133.333v133.333H1200zM1333.333 800h133.333v133.333h-133.333zM1466.667 800H1600v133.333h-133.333z"/>
    <path fill="#dddddd2c" d="M1600 800h133.333v133.333H1600z"/>
    <path fill="none" d="M1733.333 800h133.333v133.333h-133.333zM1866.667 800H2000v133.333h-133.333z"/>
    <path fill="#dddddd9d" d="M0 933.333h133.333v133.333H0z"/>
    <path fill="none" d="M133.333 933.333h133.333v133.333H133.333zM266.667 933.333H400v133.333H266.667z"/>
    <path fill="#dddddd59" d="M400 933.333h133.333v133.333H400z"/>
    <path fill="none" d="M533.333 933.333h133.333v133.333H533.333z"/>
    <path fill="#dddddd0c" d="M666.667 933.333H800v133.333H666.667z"/>
    <path fill="none" d="M800 933.333h133.333v133.333H800zM933.333 933.333h133.333v133.333H933.333z"/>
    <path fill="#ddddddb1" d="M1066.667 933.333H1200v133.333h-133.333z"/>
    <path fill="none" d="M1200 933.333h133.333v133.333H1200zM1333.333 933.333h133.333v133.333h-133.333zM1466.667 933.333H1600v133.333h-133.333z"/>
    <path fill="#ddddddbf" d="M1600 933.333h133.333v133.333H1600z"/>
    <path fill="#dddddd33" d="M1733.333 933.333h133.333v133.333h-133.333z"/>
    <path fill="none" d="M1866.667 933.333H2000v133.333h-133.333zM0 1066.667h133.333V1200H0zM133.333 1066.667h133.333V1200H133.333zM266.667 1066.667H400V1200H266.667zM400 1066.667h133.333V1200H400zM533.333 1066.667h133.333V1200H533.333zM666.667 1066.667H800V1200H666.667z"/>
    <path fill="#dddddd01" d="M800 1066.667h133.333V1200H800z"/>
    <path fill="none" d="M933.333 1066.667h133.333V1200H933.333zM1066.667 1066.667H1200V1200h-133.333zM1200 1066.667h133.333V1200H1200zM1333.333 1066.667h133.333V1200h-133.333zM1466.667 1066.667H1600V1200h-133.333zM1600 1066.667h133.333V1200H1600zM1733.333 1066.667h133.333V1200h-133.333zM1866.667 1066.667H2000V1200h-133.333zM0 1200h133.333v133.333H0z"/>
    <path fill="#dddddd6a" d="M133.333 1200h133.333v133.333H133.333z"/>
    <path fill="none" d="M266.667 1200H400v133.333H266.667zM400 1200h133.333v133.333H400zM533.333 1200h133.333v133.333H533.333zM666.667 1200H800v133.333H666.667z"/>
    <path fill="#dddddd5e" d="M800 1200h133.333v133.333H800z"/>
    <path fill="none" d="M933.333 1200h133.333v133.333H933.333zM1066.667 1200H1200v133.333h-133.333z"/>
    <path fill="#ddddddf8" d="M1200 1200h133.333v133.333H1200z"/>
    <path fill="#ddddddb1" d="M1333.333 1200h133.333v133.333h-133.333z"/>
    <path fill="#dddddd14" d="M1466.667 1200H1600v133.333h-133.333z"/>
    <path fill="none" d="M1600 1200h133.333v133.333H1600zM1733.333 1200h133.333v133.333h-133.333z"/>
    <path fill="#ddddddff" d="M1866.667 1200H2000v133.333h-133.333z"/>
    <path fill="#dddddd7b" d="M0 1333.333h133.333v133.333H0z"/>
    <path fill="none" d="M133.333 1333.333h133.333v133.333H133.333zM266.667 1333.333H400v133.333H266.667zM400 1333.333h133.333v133.333H400z"/>
    <path fill="#ddddddc2" d="M533.333 1333.333h133.333v133.333H533.333z"/>
    <path fill="none" d="M666.667 1333.333H800v133.333H666.667z"/>
    <path fill="#dddddd48" d="M800 1333.333h133.333v133.333H800z"/>
    <path fill="#dddddd94" d="M933.333 1333.333h133.333v133.333H933.333z"/>
    <path fill="none" d="M1066.667 1333.333H1200v133.333h-133.333zM1200 1333.333h133.333v133.333H1200z"/>
    <path fill="#dddddd90" d="M1333.333 1333.333h133.333v133.333h-133.333z"/>
    <path fill="none" d="M1466.667 1333.333H1600v133.333h-133.333zM1600 1333.333h133.333v133.333H1600z"/>
    <path fill="#dddddd58" d="M1733.333 1333.333h133.333v133.333h-133.333z"/>
    <path fill="none" d="M1866.667 1333.333H2000v133.333h-133.333z"/>
  </g>
  <defs>
    <radialGradient id="a">
      <stop offset="40%" stop-color="#fff" stop-opacity="0"/>
      <stop offset="100%" stop-color="#fff" stop-opacity=".6"/>
    </radialGradient>
  </defs>
</svg> 